# xmcd
#
# Track frame offsets:
#	150
#	17231
#	34955
#	49610
#	64886
#	81704
#	95613
#	110746
#	123034
#	136669
#	150833
#	165000
#	180069
#	194060
#	207913
#
# Disc length: 2938 seconds
#
# Revision: 1
# Processed by: cddbd v1.5.2PL0 Copyright (c) Steve Scherf et al.
# Submitted via: audiograbber 1.83.01
#
DISCID=bf0b780f
DTITLE=Saia Rodada - O Balanço Gostoso do Forró
DYEAR=2007
DGENRE=Forró
TTITLE0=Beber, cair e levantar
TTITLE1=Sem céu e sem chão
TTITLE2=Rá Ta Ta
TTITLE3=Eu desprezo esse amor
TTITLE4=Parar meu carro na frente do cabaré
TTITLE5=Nós dois
TTITLE6=Amor a três
TTITLE7=Como é que é? Não entendi
TTITLE8=Tá todo mundo bebo
TTITLE9=Eu vou botando pra dentro
TTITLE10=Amor de gente
TTITLE11=Brincou com o meu coração
TTITLE12=Quando você foi embora
TTITLE13=Meu corpo treme
TTITLE14=Isso é saia rodada
EXTD=
EXTT0=
EXTT1=
EXTT2=
EXTT3=
EXTT4=
EXTT5=
EXTT6=
EXTT7=
EXTT8=
EXTT9=
EXTT10=
EXTT11=
EXTT12=
EXTT13=
EXTT14=
PLAYORDER=
